<?xml version="1.0" encoding="UTF-8"?>
<svg width="40" height="40" viewBox="0 0 40 40" xmlns="http://www.w3.org/2000/svg">
  <defs>
    <linearGradient id="bg" x1="6" y1="4" x2="34" y2="36" gradientUnits="userSpaceOnUse">
      <stop offset="0" stop-color="#134E4A"/>
      <stop offset="1" stop-color="#075985"/>
    </linearGradient>
    <linearGradient id="cloud" x1="9" y1="14" x2="31" y2="30" gradientUnits="userSpaceOnUse">
      <stop offset="0" stop-color="#2DD4BF"/>
      <stop offset="1" stop-color="#0D9488"/>
    </linearGradient>
  </defs>

  <rect x="2" y="2" width="36" height="36" rx="9" fill="url(#bg)"/>
  <circle cx="20" cy="20" r="15" fill="none" stroke="#5EEAD4" stroke-opacity="0.24" stroke-width="1.5"/>

  <path d="M12.2 24.2c-2.6 0-4.7-2-4.7-4.5s2.1-4.5 4.7-4.5h.7c1.2-4 4.8-6.8 9.1-6.8 4.8 0 8.8 3.5 9.4 8.1 2.4.5 4.1 2.5 4.1 4.9 0 2.7-2.3 4.9-5.1 4.9H12.2Z" fill="url(#cloud)"/>
  <path d="M15.5 13.8c-2.2 1.5-3.4 3.7-3.4 6 0 1.4.6 2.4 1.8 3 1.3-1.7 1.9-3.7 1.9-5.9 0-1.4-.3-2.5-.3-3.1Z" fill="#99F6E4" opacity="0.42"/>

  <path d="M20 7.5 13.6 16h4.1v10.4h4.6V16h4.1L20 7.5Z" fill="#F59E0B"/>
  <path d="M20 10.7 16.9 15h2.1v5.6h2V15h2.1L20 10.7Z" fill="#FDE68A" opacity="0.78"/>

  <circle cx="12.5" cy="22.4" r="1" fill="#67E8F9"/>
  <circle cx="27.8" cy="23" r=".9" fill="#67E8F9" opacity=".85"/>
  <circle cx="31.4" cy="20.5" r=".75" fill="#67E8F9" opacity=".75"/>
</svg>
