<?xml version="1.0" encoding="UTF-8"?>
<svg width="16" height="16" viewBox="0 0 16 16" xmlns="http://www.w3.org/2000/svg">
  <!-- folder back (teal, matching toolWindow cloud body) -->
  <path d="M1 4.5a1 1 0 0 1 1-1h3.5l1.5 1H14a1 1 0 0 1 1 1V13a1 1 0 0 1-1 1H2a1 1 0 0 1-1-1V4.5Z" fill="#14B8A6"/>
  <!-- folder highlight (lighter teal, matching toolWindow cloud highlight) -->
  <path d="M2 3.5c-.3 0-.5.2-.5.5l.1 2.3h4.6l1-1H14c.3 0 .5.2.5.5v1.5H1.5V4.5c0-.3.2-.5.5-.5Z" fill="#5EEAD4" opacity=".55"/>
  <!-- folder front (amber, matching toolWindow arrow) -->
  <path d="M1.5 4.5V13a.5.5 0 0 0 .5.5h12a.5.5 0 0 0 .5-.5V5.5a.5.5 0 0 0-.5-.5H7.8L6.3 3.5H2a.5.5 0 0 0-.5.5Z" fill="#FBBF24"/>
  <!-- remote sync arrows (cyan, matching toolWindow dots) -->
  <path d="M9.2 2.8 11.5 5 9.2 7.2" stroke="#22D3EE" stroke-width="1.3" fill="none" stroke-linecap="round" stroke-linejoin="round"/>
  <!-- remote indicator dots (matching toolWindow accent dots) -->
  <circle cx="10.5" cy="8.5" r="1.2" fill="#22D3EE" opacity=".5"/>
  <circle cx="13.8" cy="6.8" r=".9" fill="#FBBF24" opacity=".7"/>
</svg>
