<?xml version="1.0" encoding="UTF-8"?>
<svg width="16" height="16" viewBox="0 0 16 16" xmlns="http://www.w3.org/2000/svg">
  <path d="M8 1.5 4.5 5.6h2.1v3.5h2.8V5.6h2.1L8 1.5Z" fill="#FBBF24"/>
  <path d="M4.6 7.1c.2-2 1.9-3.6 4-3.6 2 0 3.7 1.6 3.9 3.6 1.2.2 2.1 1.2 2.1 2.5 0 1.4-1.1 2.6-2.6 2.6H4c-1.4 0-2.6-1.2-2.6-2.6 0-1.3.9-2.3 2.1-2.5h1.1Z" fill="#14B8A6"/>
  <path d="M5.9 4.5C5.1 5.2 4.6 6.2 4.6 7.2c0 .8.3 1.2.9 1.5.4-.6.7-1.5.7-2.3 0-.9-.3-1.9-.3-1.9Z" fill="#5EEAD4" opacity=".65"/>
  <path d="M8 1.5 4.5 5.6h2.1v3.5h2.8V5.6h2.1L8 1.5Z" fill="#FBBF24"/>
  <circle cx="4.2" cy="10.2" r=".55" fill="#22D3EE"/>
  <circle cx="7" cy="10.8" r=".45" fill="#22D3EE" opacity=".85"/>
  <circle cx="10.8" cy="10.5" r=".45" fill="#22D3EE" opacity=".8"/>
</svg>
